<svg viewBox="0 0 64 64" fill="none" xmlns="http://www.w3.org/2000/svg">
  <polygon points="32,10 46,18 46,34 32,42 18,34 18,18" fill="none" stroke="#2C6E91" stroke-width="2" />
  <circle cx="32" cy="26" r="4" fill="#2C6E91" />
  <circle cx="32" cy="10" r="3" fill="#2C6E91" opacity="0.7" />
  <circle cx="46" cy="18" r="3" fill="#2C6E91" opacity="0.7" />
  <circle cx="46" cy="34" r="3" fill="#2C6E91" opacity="0.7" />
  <circle cx="32" cy="42" r="3" fill="#2C6E91" opacity="0.7" />
  <circle cx="18" cy="34" r="3" fill="#2C6E91" opacity="0.7" />
  <circle cx="18" cy="18" r="3" fill="#2C6E91" opacity="0.7" />
  <line x1="32" y1="26" x2="32" y2="10" stroke="#2C6E91" stroke-width="1.2" opacity="0.5" />
  <line x1="32" y1="26" x2="46" y2="18" stroke="#2C6E91" stroke-width="1.2" opacity="0.5" />
  <line x1="32" y1="26" x2="46" y2="34" stroke="#2C6E91" stroke-width="1.2" opacity="0.5" />
  <line x1="32" y1="26" x2="32" y2="42" stroke="#2C6E91" stroke-width="1.2" opacity="0.5" />
  <line x1="32" y1="26" x2="18" y2="34" stroke="#2C6E91" stroke-width="1.2" opacity="0.5" />
  <line x1="32" y1="26" x2="18" y2="18" stroke="#2C6E91" stroke-width="1.2" opacity="0.5" />
  <circle cx="32" cy="52" r="2.5" fill="#2C6E91" opacity="0.4" />
  <circle cx="54" cy="44" r="2.5" fill="#2C6E91" opacity="0.4" />
  <circle cx="10" cy="44" r="2.5" fill="#2C6E91" opacity="0.4" />
  <line x1="32" y1="42" x2="32" y2="52" stroke="#2C6E91" stroke-width="1" opacity="0.3" />
  <line x1="46" y1="34" x2="54" y2="44" stroke="#2C6E91" stroke-width="1" opacity="0.3" />
  <line x1="18" y1="34" x2="10" y2="44" stroke="#2C6E91" stroke-width="1" opacity="0.3" />
</svg>
